<?xml version="1.0" encoding="UTF-8" ?>
<svg version="1.1" width="45" height="45" xmlns="http://www.w3.org/2000/svg" shape-rendering="crispEdges">
<rect x="18" y="8" width="1" height="1" fill="#FFFFFF" />
<rect x="19" y="8" width="1" height="1" fill="#FFFFFF" />
<rect x="20" y="8" width="1" height="1" fill="#FFFFFF" />
<rect x="21" y="8" width="1" height="1" fill="#FFFFFF" />
<rect x="22" y="8" width="1" height="1" fill="#FFFFFF" />
<rect x="23" y="8" width="1" height="1" fill="#FFFFFF" />
<rect x="24" y="8" width="1" height="1" fill="#FFFFFF" />
<rect x="25" y="8" width="1" height="1" fill="#FFFFFF" />
<rect x="26" y="8" width="1" height="1" fill="#FFFFFF" />
<rect x="27" y="8" width="1" height="1" fill="#FFFFFF" />
<rect x="28" y="8" width="1" height="1" fill="#FFFFFF" />
<rect x="29" y="8" width="1" height="1" fill="#FFFFFF" />
<rect x="16" y="9" width="1" height="1" fill="#FFFFFF" />
<rect x="17" y="9" width="1" height="1" fill="#FFFFFF" />
<rect x="18" y="9" width="1" height="1" fill="#FFFFFF" />
<rect x="19" y="9" width="1" height="1" fill="#FFFFFF" />
<rect x="20" y="9" width="1" height="1" fill="#FFFFFF" />
<rect x="21" y="9" width="1" height="1" fill="#FFFFFF" />
<rect x="22" y="9" width="1" height="1" fill="#FFFFFF" />
<rect x="23" y="9" width="1" height="1" fill="#FFFFFF" />
<rect x="24" y="9" width="1" height="1" fill="#FFFFFF" />
<rect x="25" y="9" width="1" height="1" fill="#FFFFFF" />
<rect x="26" y="9" width="1" height="1" fill="#FFFFFF" />
<rect x="27" y="9" width="1" height="1" fill="#FFFFFF" />
<rect x="28" y="9" width="1" height="1" fill="#FFFFFF" />
<rect x="29" y="9" width="1" height="1" fill="#FFFFFF" />
<rect x="30" y="9" width="1" height="1" fill="#FFFFFF" />
<rect x="31" y="9" width="1" height="1" fill="#FFFFFF" />
<rect x="15" y="10" width="1" height="1" fill="#FFFFFF" />
<rect x="16" y="10" width="1" height="1" fill="#FFFFFF" />
<rect x="17" y="10" width="1" height="1" fill="#FFFFFF" />
<rect x="18" y="10" width="1" height="1" fill="#FFFFFF" />
<rect x="19" y="10" width="1" height="1" fill="#FFFFFF" />
<rect x="20" y="10" width="1" height="1" fill="#FFFFFF" />
<rect x="21" y="10" width="1" height="1" fill="#FFFFFF" />
<rect x="25" y="10" width="1" height="1" fill="#FFFFFF" />
<rect x="26" y="10" width="1" height="1" fill="#FFFFFF" />
<rect x="27" y="10" width="1" height="1" fill="#FFFFFF" />
<rect x="28" y="10" width="1" height="1" fill="#FFFFFF" />
<rect x="29" y="10" width="1" height="1" fill="#FFFFFF" />
<rect x="30" y="10" width="1" height="1" fill="#FFFFFF" />
<rect x="31" y="10" width="1" height="1" fill="#FFFFFF" />
<rect x="32" y="10" width="1" height="1" fill="#FFFFFF" />
<rect x="14" y="11" width="1" height="1" fill="#FFFFFF" />
<rect x="15" y="11" width="1" height="1" fill="#FFFFFF" />
<rect x="16" y="11" width="1" height="1" fill="#FFFFFF" />
<rect x="17" y="11" width="1" height="1" fill="#FFFFFF" />
<rect x="18" y="11" width="1" height="1" fill="#FFFFFF" />
<rect x="30" y="11" width="1" height="1" fill="#FFFFFF" />
<rect x="31" y="11" width="1" height="1" fill="#FFFFFF" />
<rect x="32" y="11" width="1" height="1" fill="#FFFFFF" />
<rect x="33" y="11" width="1" height="1" fill="#FFFFFF" />
<rect x="13" y="12" width="1" height="1" fill="#FFFFFF" />
<rect x="14" y="12" width="1" height="1" fill="#FFFFFF" />
<rect x="15" y="12" width="1" height="1" fill="#FFFFFF" />
<rect x="16" y="12" width="1" height="1" fill="#FFFFFF" />
<rect x="31" y="12" width="1" height="1" fill="#FFFFFF" />
<rect x="32" y="12" width="1" height="1" fill="#FFFFFF" />
<rect x="33" y="12" width="1" height="1" fill="#FFFFFF" />
<rect x="13" y="13" width="1" height="1" fill="#FFFFFF" />
<rect x="14" y="13" width="1" height="1" fill="#FFFFFF" />
<rect x="15" y="13" width="1" height="1" fill="#FFFFFF" />
<rect x="32" y="13" width="1" height="1" fill="#FFFFFF" />
<rect x="33" y="13" width="1" height="1" fill="#FFFFFF" />
<rect x="34" y="13" width="1" height="1" fill="#FFFFFF" />
<rect x="12" y="14" width="1" height="1" fill="#FFFFFF" />
<rect x="13" y="14" width="1" height="1" fill="#FFFFFF" />
<rect x="14" y="14" width="1" height="1" fill="#FFFFFF" />
<rect x="33" y="14" width="1" height="1" fill="#FFFFFF" />
<rect x="34" y="14" width="1" height="1" fill="#FFFFFF" />
<rect x="12" y="15" width="1" height="1" fill="#FFFFFF" />
<rect x="13" y="15" width="1" height="1" fill="#FFFFFF" />
<rect x="14" y="15" width="1" height="1" fill="#FFFFFF" />
<rect x="15" y="15" width="1" height="1" fill="#FFFFFF" />
<rect x="16" y="15" width="1" height="1" fill="#FFFFFF" />
<rect x="17" y="15" width="1" height="1" fill="#FFFFFF" />
<rect x="18" y="15" width="1" height="1" fill="#FFFFFF" />
<rect x="19" y="15" width="1" height="1" fill="#FFFFFF" />
<rect x="20" y="15" width="1" height="1" fill="#FFFFFF" />
<rect x="21" y="15" width="1" height="1" fill="#FFFFFF" />
<rect x="22" y="15" width="1" height="1" fill="#FFFFFF" />
<rect x="33" y="15" width="1" height="1" fill="#FFFFFF" />
<rect x="34" y="15" width="1" height="1" fill="#FFFFFF" />
<rect x="35" y="15" width="1" height="1" fill="#FFFFFF" />
<rect x="11" y="16" width="1" height="1" fill="#FFFFFF" />
<rect x="12" y="16" width="1" height="1" fill="#FFFFFF" />
<rect x="13" y="16" width="1" height="1" fill="#FFFFFF" />
<rect x="14" y="16" width="1" height="1" fill="#FFFFFF" />
<rect x="15" y="16" width="1" height="1" fill="#FFFFFF" />
<rect x="16" y="16" width="1" height="1" fill="#FFFFFF" />
<rect x="17" y="16" width="1" height="1" fill="#FFFFFF" />
<rect x="18" y="16" width="1" height="1" fill="#FFFFFF" />
<rect x="19" y="16" width="1" height="1" fill="#FFFFFF" />
<rect x="20" y="16" width="1" height="1" fill="#FFFFFF" />
<rect x="21" y="16" width="1" height="1" fill="#FFFFFF" />
<rect x="22" y="16" width="1" height="1" fill="#FFFFFF" />
<rect x="23" y="16" width="1" height="1" fill="#FFFFFF" />
<rect x="24" y="16" width="1" height="1" fill="#FFFFFF" />
<rect x="25" y="16" width="1" height="1" fill="#FFFFFF" />
<rect x="33" y="16" width="1" height="1" fill="#FFFFFF" />
<rect x="34" y="16" width="1" height="1" fill="#FFFFFF" />
<rect x="35" y="16" width="1" height="1" fill="#FFFFFF" />
<rect x="9" y="17" width="1" height="1" fill="#FFFFFF" />
<rect x="10" y="17" width="1" height="1" fill="#FFFFFF" />
<rect x="11" y="17" width="1" height="1" fill="#FFFFFF" />
<rect x="12" y="17" width="1" height="1" fill="#FFFFFF" />
<rect x="13" y="17" width="1" height="1" fill="#FFFFFF" />
<rect x="14" y="17" width="1" height="1" fill="#FFFFFF" />
<rect x="15" y="17" width="1" height="1" fill="#FFFFFF" />
<rect x="16" y="17" width="1" height="1" fill="#FFFFFF" />
<rect x="17" y="17" width="1" height="1" fill="#FFFFFF" />
<rect x="18" y="17" width="1" height="1" fill="#FFFFFF" />
<rect x="19" y="17" width="1" height="1" fill="#FFFFFF" />
<rect x="20" y="17" width="1" height="1" fill="#FFFFFF" />
<rect x="21" y="17" width="1" height="1" fill="#FFFFFF" />
<rect x="22" y="17" width="1" height="1" fill="#FFFFFF" />
<rect x="23" y="17" width="1" height="1" fill="#FFFFFF" />
<rect x="24" y="17" width="1" height="1" fill="#FFFFFF" />
<rect x="25" y="17" width="1" height="1" fill="#FFFFFF" />
<rect x="26" y="17" width="1" height="1" fill="#FFFFFF" />
<rect x="34" y="17" width="1" height="1" fill="#FFFFFF" />
<rect x="35" y="17" width="1" height="1" fill="#FFFFFF" />
<rect x="8" y="18" width="1" height="1" fill="#FFFFFF" />
<rect x="9" y="18" width="1" height="1" fill="#FFFFFF" />
<rect x="10" y="18" width="1" height="1" fill="#FFFFFF" />
<rect x="11" y="18" width="1" height="1" fill="#FFFFFF" />
<rect x="12" y="18" width="1" height="1" fill="#FFFFFF" />
<rect x="24" y="18" width="1" height="1" fill="#FFFFFF" />
<rect x="25" y="18" width="1" height="1" fill="#FFFFFF" />
<rect x="26" y="18" width="1" height="1" fill="#FFFFFF" />
<rect x="27" y="18" width="1" height="1" fill="#FFFFFF" />
<rect x="34" y="18" width="1" height="1" fill="#FFFFFF" />
<rect x="35" y="18" width="1" height="1" fill="#FFFFFF" />
<rect x="8" y="19" width="1" height="1" fill="#FFFFFF" />
<rect x="9" y="19" width="1" height="1" fill="#FFFFFF" />
<rect x="10" y="19" width="1" height="1" fill="#FFFFFF" />
<rect x="13" y="19" width="1" height="1" fill="#FFFFFF" />
<rect x="14" y="19" width="1" height="1" fill="#FFFFFF" />
<rect x="15" y="19" width="1" height="1" fill="#FFFFFF" />
<rect x="16" y="19" width="1" height="1" fill="#FFFFFF" />
<rect x="17" y="19" width="1" height="1" fill="#FFFFFF" />
<rect x="18" y="19" width="1" height="1" fill="#FFFFFF" />
<rect x="19" y="19" width="1" height="1" fill="#FFFFFF" />
<rect x="25" y="19" width="1" height="1" fill="#FFFFFF" />
<rect x="26" y="19" width="1" height="1" fill="#FFFFFF" />
<rect x="27" y="19" width="1" height="1" fill="#FFFFFF" />
<rect x="34" y="19" width="1" height="1" fill="#FFFFFF" />
<rect x="35" y="19" width="1" height="1" fill="#FFFFFF" />
<rect x="36" y="19" width="1" height="1" fill="#FFFFFF" />
<rect x="7" y="20" width="1" height="1" fill="#FFFFFF" />
<rect x="8" y="20" width="1" height="1" fill="#FFFFFF" />
<rect x="9" y="20" width="1" height="1" fill="#FFFFFF" />
<rect x="12" y="20" width="1" height="1" fill="#FFFFFF" />
<rect x="13" y="20" width="1" height="1" fill="#FFFFFF" />
<rect x="14" y="20" width="1" height="1" fill="#FFFFFF" />
<rect x="15" y="20" width="1" height="1" fill="#FFFFFF" />
<rect x="16" y="20" width="1" height="1" fill="#FFFFFF" />
<rect x="17" y="20" width="1" height="1" fill="#FFFFFF" />
<rect x="18" y="20" width="1" height="1" fill="#FFFFFF" />
<rect x="19" y="20" width="1" height="1" fill="#FFFFFF" />
<rect x="26" y="20" width="1" height="1" fill="#FFFFFF" />
<rect x="27" y="20" width="1" height="1" fill="#FFFFFF" />
<rect x="34" y="20" width="1" height="1" fill="#FFFFFF" />
<rect x="35" y="20" width="1" height="1" fill="#FFFFFF" />
<rect x="36" y="20" width="1" height="1" fill="#FFFFFF" />
<rect x="7" y="21" width="1" height="1" fill="#FFFFFF" />
<rect x="8" y="21" width="1" height="1" fill="#FFFFFF" />
<rect x="9" y="21" width="1" height="1" fill="#FFFFFF" />
<rect x="12" y="21" width="1" height="1" fill="#FFFFFF" />
<rect x="13" y="21" width="1" height="1" fill="#FFFFFF" />
<rect x="14" y="21" width="1" height="1" fill="#FFFFFF" />
<rect x="15" y="21" width="1" height="1" fill="#FFFFFF" />
<rect x="16" y="21" width="1" height="1" fill="#FFFFFF" />
<rect x="17" y="21" width="1" height="1" fill="#FFFFFF" />
<rect x="18" y="21" width="1" height="1" fill="#FFFFFF" />
<rect x="26" y="21" width="1" height="1" fill="#FFFFFF" />
<rect x="27" y="21" width="1" height="1" fill="#FFFFFF" />
<rect x="28" y="21" width="1" height="1" fill="#FFFFFF" />
<rect x="34" y="21" width="1" height="1" fill="#FFFFFF" />
<rect x="35" y="21" width="1" height="1" fill="#FFFFFF" />
<rect x="36" y="21" width="1" height="1" fill="#FFFFFF" />
<rect x="37" y="21" width="1" height="1" fill="#FFFFFF" />
<rect x="7" y="22" width="1" height="1" fill="#FFFFFF" />
<rect x="8" y="22" width="1" height="1" fill="#FFFFFF" />
<rect x="26" y="22" width="1" height="1" fill="#FFFFFF" />
<rect x="27" y="22" width="1" height="1" fill="#FFFFFF" />
<rect x="28" y="22" width="1" height="1" fill="#FFFFFF" />
<rect x="35" y="22" width="1" height="1" fill="#FFFFFF" />
<rect x="36" y="22" width="1" height="1" fill="#FFFFFF" />
<rect x="37" y="22" width="1" height="1" fill="#FFFFFF" />
<rect x="38" y="22" width="1" height="1" fill="#FFFFFF" />
<rect x="39" y="22" width="1" height="1" fill="#FFFFFF" />
<rect x="40" y="22" width="1" height="1" fill="#FFFFFF" />
<rect x="41" y="22" width="1" height="1" fill="#FFFFFF" />
<rect x="7" y="23" width="1" height="1" fill="#FFFFFF" />
<rect x="8" y="23" width="1" height="1" fill="#FFFFFF" />
<rect x="26" y="23" width="1" height="1" fill="#FFFFFF" />
<rect x="27" y="23" width="1" height="1" fill="#FFFFFF" />
<rect x="28" y="23" width="1" height="1" fill="#FFFFFF" />
<rect x="35" y="23" width="1" height="1" fill="#FFFFFF" />
<rect x="36" y="23" width="1" height="1" fill="#FFFFFF" />
<rect x="37" y="23" width="1" height="1" fill="#FFFFFF" />
<rect x="38" y="23" width="1" height="1" fill="#FFFFFF" />
<rect x="39" y="23" width="1" height="1" fill="#FFFFFF" />
<rect x="40" y="23" width="1" height="1" fill="#FFFFFF" />
<rect x="41" y="23" width="1" height="1" fill="#FFFFFF" />
<rect x="42" y="23" width="1" height="1" fill="#FFFFFF" />
<rect x="7" y="24" width="1" height="1" fill="#FFFFFF" />
<rect x="8" y="24" width="1" height="1" fill="#FFFFFF" />
<rect x="26" y="24" width="1" height="1" fill="#FFFFFF" />
<rect x="27" y="24" width="1" height="1" fill="#FFFFFF" />
<rect x="28" y="24" width="1" height="1" fill="#FFFFFF" />
<rect x="35" y="24" width="1" height="1" fill="#FFFFFF" />
<rect x="36" y="24" width="1" height="1" fill="#FFFFFF" />
<rect x="41" y="24" width="1" height="1" fill="#FFFFFF" />
<rect x="42" y="24" width="1" height="1" fill="#FFFFFF" />
<rect x="7" y="25" width="1" height="1" fill="#FFFFFF" />
<rect x="8" y="25" width="1" height="1" fill="#FFFFFF" />
<rect x="9" y="25" width="1" height="1" fill="#FFFFFF" />
<rect x="25" y="25" width="1" height="1" fill="#FFFFFF" />
<rect x="26" y="25" width="1" height="1" fill="#FFFFFF" />
<rect x="27" y="25" width="1" height="1" fill="#FFFFFF" />
<rect x="35" y="25" width="1" height="1" fill="#FFFFFF" />
<rect x="36" y="25" width="1" height="1" fill="#FFFFFF" />
<rect x="41" y="25" width="1" height="1" fill="#FFFFFF" />
<rect x="42" y="25" width="1" height="1" fill="#FFFFFF" />
<rect x="43" y="25" width="1" height="1" fill="#FFFFFF" />
<rect x="7" y="26" width="1" height="1" fill="#FFFFFF" />
<rect x="8" y="26" width="1" height="1" fill="#FFFFFF" />
<rect x="9" y="26" width="1" height="1" fill="#FFFFFF" />
<rect x="10" y="26" width="1" height="1" fill="#FFFFFF" />
<rect x="25" y="26" width="1" height="1" fill="#FFFFFF" />
<rect x="26" y="26" width="1" height="1" fill="#FFFFFF" />
<rect x="27" y="26" width="1" height="1" fill="#FFFFFF" />
<rect x="35" y="26" width="1" height="1" fill="#FFFFFF" />
<rect x="36" y="26" width="1" height="1" fill="#FFFFFF" />
<rect x="41" y="26" width="1" height="1" fill="#FFFFFF" />
<rect x="42" y="26" width="1" height="1" fill="#FFFFFF" />
<rect x="43" y="26" width="1" height="1" fill="#FFFFFF" />
<rect x="8" y="27" width="1" height="1" fill="#FFFFFF" />
<rect x="9" y="27" width="1" height="1" fill="#FFFFFF" />
<rect x="10" y="27" width="1" height="1" fill="#FFFFFF" />
<rect x="11" y="27" width="1" height="1" fill="#FFFFFF" />
<rect x="12" y="27" width="1" height="1" fill="#FFFFFF" />
<rect x="23" y="27" width="1" height="1" fill="#FFFFFF" />
<rect x="24" y="27" width="1" height="1" fill="#FFFFFF" />
<rect x="25" y="27" width="1" height="1" fill="#FFFFFF" />
<rect x="26" y="27" width="1" height="1" fill="#FFFFFF" />
<rect x="35" y="27" width="1" height="1" fill="#FFFFFF" />
<rect x="36" y="27" width="1" height="1" fill="#FFFFFF" />
<rect x="42" y="27" width="1" height="1" fill="#FFFFFF" />
<rect x="43" y="27" width="1" height="1" fill="#FFFFFF" />
<rect x="9" y="28" width="1" height="1" fill="#FFFFFF" />
<rect x="10" y="28" width="1" height="1" fill="#FFFFFF" />
<rect x="11" y="28" width="1" height="1" fill="#FFFFFF" />
<rect x="12" y="28" width="1" height="1" fill="#FFFFFF" />
<rect x="13" y="28" width="1" height="1" fill="#FFFFFF" />
<rect x="14" y="28" width="1" height="1" fill="#FFFFFF" />
<rect x="15" y="28" width="1" height="1" fill="#FFFFFF" />
<rect x="16" y="28" width="1" height="1" fill="#FFFFFF" />
<rect x="17" y="28" width="1" height="1" fill="#FFFFFF" />
<rect x="18" y="28" width="1" height="1" fill="#FFFFFF" />
<rect x="19" y="28" width="1" height="1" fill="#FFFFFF" />
<rect x="20" y="28" width="1" height="1" fill="#FFFFFF" />
<rect x="21" y="28" width="1" height="1" fill="#FFFFFF" />
<rect x="22" y="28" width="1" height="1" fill="#FFFFFF" />
<rect x="23" y="28" width="1" height="1" fill="#FFFFFF" />
<rect x="24" y="28" width="1" height="1" fill="#FFFFFF" />
<rect x="25" y="28" width="1" height="1" fill="#FFFFFF" />
<rect x="35" y="28" width="1" height="1" fill="#FFFFFF" />
<rect x="36" y="28" width="1" height="1" fill="#FFFFFF" />
<rect x="42" y="28" width="1" height="1" fill="#FFFFFF" />
<rect x="43" y="28" width="1" height="1" fill="#FFFFFF" />
<rect x="9" y="29" width="1" height="1" fill="#FFFFFF" />
<rect x="10" y="29" width="1" height="1" fill="#FFFFFF" />
<rect x="11" y="29" width="1" height="1" fill="#FFFFFF" />
<rect x="12" y="29" width="1" height="1" fill="#FFFFFF" />
<rect x="13" y="29" width="1" height="1" fill="#FFFFFF" />
<rect x="14" y="29" width="1" height="1" fill="#FFFFFF" />
<rect x="15" y="29" width="1" height="1" fill="#FFFFFF" />
<rect x="16" y="29" width="1" height="1" fill="#FFFFFF" />
<rect x="17" y="29" width="1" height="1" fill="#FFFFFF" />
<rect x="18" y="29" width="1" height="1" fill="#FFFFFF" />
<rect x="19" y="29" width="1" height="1" fill="#FFFFFF" />
<rect x="20" y="29" width="1" height="1" fill="#FFFFFF" />
<rect x="21" y="29" width="1" height="1" fill="#FFFFFF" />
<rect x="22" y="29" width="1" height="1" fill="#FFFFFF" />
<rect x="23" y="29" width="1" height="1" fill="#FFFFFF" />
<rect x="24" y="29" width="1" height="1" fill="#FFFFFF" />
<rect x="35" y="29" width="1" height="1" fill="#FFFFFF" />
<rect x="36" y="29" width="1" height="1" fill="#FFFFFF" />
<rect x="42" y="29" width="1" height="1" fill="#FFFFFF" />
<rect x="43" y="29" width="1" height="1" fill="#FFFFFF" />
<rect x="9" y="30" width="1" height="1" fill="#FFFFFF" />
<rect x="10" y="30" width="1" height="1" fill="#FFFFFF" />
<rect x="14" y="30" width="1" height="1" fill="#FFFFFF" />
<rect x="15" y="30" width="1" height="1" fill="#FFFFFF" />
<rect x="16" y="30" width="1" height="1" fill="#FFFFFF" />
<rect x="17" y="30" width="1" height="1" fill="#FFFFFF" />
<rect x="18" y="30" width="1" height="1" fill="#FFFFFF" />
<rect x="19" y="30" width="1" height="1" fill="#FFFFFF" />
<rect x="20" y="30" width="1" height="1" fill="#FFFFFF" />
<rect x="21" y="30" width="1" height="1" fill="#FFFFFF" />
<rect x="35" y="30" width="1" height="1" fill="#FFFFFF" />
<rect x="36" y="30" width="1" height="1" fill="#FFFFFF" />
<rect x="42" y="30" width="1" height="1" fill="#FFFFFF" />
<rect x="43" y="30" width="1" height="1" fill="#FFFFFF" />
<rect x="9" y="31" width="1" height="1" fill="#FFFFFF" />
<rect x="10" y="31" width="1" height="1" fill="#FFFFFF" />
<rect x="35" y="31" width="1" height="1" fill="#FFFFFF" />
<rect x="36" y="31" width="1" height="1" fill="#FFFFFF" />
<rect x="42" y="31" width="1" height="1" fill="#FFFFFF" />
<rect x="43" y="31" width="1" height="1" fill="#FFFFFF" />
<rect x="9" y="32" width="1" height="1" fill="#FFFFFF" />
<rect x="10" y="32" width="1" height="1" fill="#FFFFFF" />
<rect x="35" y="32" width="1" height="1" fill="#FFFFFF" />
<rect x="36" y="32" width="1" height="1" fill="#FFFFFF" />
<rect x="42" y="32" width="1" height="1" fill="#FFFFFF" />
<rect x="43" y="32" width="1" height="1" fill="#FFFFFF" />
<rect x="9" y="33" width="1" height="1" fill="#FFFFFF" />
<rect x="10" y="33" width="1" height="1" fill="#FFFFFF" />
<rect x="35" y="33" width="1" height="1" fill="#FFFFFF" />
<rect x="36" y="33" width="1" height="1" fill="#FFFFFF" />
<rect x="42" y="33" width="1" height="1" fill="#FFFFFF" />
<rect x="43" y="33" width="1" height="1" fill="#FFFFFF" />
<rect x="9" y="34" width="1" height="1" fill="#FFFFFF" />
<rect x="10" y="34" width="1" height="1" fill="#FFFFFF" />
<rect x="35" y="34" width="1" height="1" fill="#FFFFFF" />
<rect x="36" y="34" width="1" height="1" fill="#FFFFFF" />
<rect x="42" y="34" width="1" height="1" fill="#FFFFFF" />
<rect x="43" y="34" width="1" height="1" fill="#FFFFFF" />
<rect x="9" y="35" width="1" height="1" fill="#FFFFFF" />
<rect x="10" y="35" width="1" height="1" fill="#FFFFFF" />
<rect x="35" y="35" width="1" height="1" fill="#FFFFFF" />
<rect x="36" y="35" width="1" height="1" fill="#FFFFFF" />
<rect x="42" y="35" width="1" height="1" fill="#FFFFFF" />
<rect x="43" y="35" width="1" height="1" fill="#FFFFFF" />
<rect x="9" y="36" width="1" height="1" fill="#FFFFFF" />
<rect x="10" y="36" width="1" height="1" fill="#FFFFFF" />
<rect x="35" y="36" width="1" height="1" fill="#FFFFFF" />
<rect x="36" y="36" width="1" height="1" fill="#FFFFFF" />
<rect x="42" y="36" width="1" height="1" fill="#FFFFFF" />
<rect x="43" y="36" width="1" height="1" fill="#FFFFFF" />
<rect x="9" y="37" width="1" height="1" fill="#FFFFFF" />
<rect x="10" y="37" width="1" height="1" fill="#FFFFFF" />
<rect x="35" y="37" width="1" height="1" fill="#FFFFFF" />
<rect x="36" y="37" width="1" height="1" fill="#FFFFFF" />
<rect x="42" y="37" width="1" height="1" fill="#FFFFFF" />
<rect x="43" y="37" width="1" height="1" fill="#FFFFFF" />
<rect x="9" y="38" width="1" height="1" fill="#FFFFFF" />
<rect x="10" y="38" width="1" height="1" fill="#FFFFFF" />
<rect x="35" y="38" width="1" height="1" fill="#FFFFFF" />
<rect x="36" y="38" width="1" height="1" fill="#FFFFFF" />
<rect x="42" y="38" width="1" height="1" fill="#FFFFFF" />
<rect x="43" y="38" width="1" height="1" fill="#FFFFFF" />
<rect x="9" y="39" width="1" height="1" fill="#FFFFFF" />
<rect x="10" y="39" width="1" height="1" fill="#FFFFFF" />
<rect x="35" y="39" width="1" height="1" fill="#FFFFFF" />
<rect x="36" y="39" width="1" height="1" fill="#FFFFFF" />
<rect x="42" y="39" width="1" height="1" fill="#FFFFFF" />
<rect x="43" y="39" width="1" height="1" fill="#FFFFFF" />
<rect x="9" y="40" width="1" height="1" fill="#FFFFFF" />
<rect x="10" y="40" width="1" height="1" fill="#FFFFFF" />
<rect x="35" y="40" width="1" height="1" fill="#FFFFFF" />
<rect x="36" y="40" width="1" height="1" fill="#FFFFFF" />
<rect x="42" y="40" width="1" height="1" fill="#FFFFFF" />
<rect x="43" y="40" width="1" height="1" fill="#FFFFFF" />
<rect x="9" y="41" width="1" height="1" fill="#FFFFFF" />
<rect x="10" y="41" width="1" height="1" fill="#FFFFFF" />
<rect x="35" y="41" width="1" height="1" fill="#FFFFFF" />
<rect x="36" y="41" width="1" height="1" fill="#FFFFFF" />
<rect x="42" y="41" width="1" height="1" fill="#FFFFFF" />
<rect x="43" y="41" width="1" height="1" fill="#FFFFFF" />
<rect x="9" y="42" width="1" height="1" fill="#FFFFFF" />
<rect x="10" y="42" width="1" height="1" fill="#FFFFFF" />
<rect x="35" y="42" width="1" height="1" fill="#FFFFFF" />
<rect x="36" y="42" width="1" height="1" fill="#FFFFFF" />
<rect x="42" y="42" width="1" height="1" fill="#FFFFFF" />
<rect x="43" y="42" width="1" height="1" fill="#FFFFFF" />
<rect x="9" y="43" width="1" height="1" fill="#FFFFFF" />
<rect x="10" y="43" width="1" height="1" fill="#FFFFFF" />
<rect x="35" y="43" width="1" height="1" fill="#FFFFFF" />
<rect x="36" y="43" width="1" height="1" fill="#FFFFFF" />
<rect x="42" y="43" width="1" height="1" fill="#FFFFFF" />
<rect x="43" y="43" width="1" height="1" fill="#FFFFFF" />
</svg>